<svg id="div_1" data-name="div 1" xmlns="http://www.w3.org/2000/svg" xmlns:xlink="http://www.w3.org/1999/xlink"
     viewBox="0 0 659.32 157.66">
    <defs>
        <style>
            .cls-1{fill:url(#n_86);}.cls-2{fill:url(#n_86-2);}.cls-3{fill:url(#n_86-3);}.cls-4{fill:url(#n_86-4);}.cls-5{fill:url(#n_86-5);}.cls-6{fill:url(#n_86-6);}.cls-7{fill:#fff;}
        </style>
        <linearGradient id="n_86" x1="126.72" y1="464.06" x2="181.55" y2="518.89" gradientUnits="userSpaceOnUse">
            <stop offset="0" stop-color="#e5eef9"/>
            <stop offset="0.3" stop-color="#c8ddf6"/>
            <stop offset="1" stop-color="#3280da"/>
        </linearGradient>
        <linearGradient id="n_86-2" x1="823.37" y1="1235.1" x2="878.21" y2="1289.94"
                        gradientTransform="translate(861.28 -847.44) rotate(59.86)" xlink:href="#n_86"/>
        <linearGradient id="n_86-3" x1="1827.78" y1="1056.69" x2="1882.61" y2="1111.53"
                        gradientTransform="translate(2026.86 -543.73) rotate(118.38)" xlink:href="#n_86"/>
        <linearGradient id="n_86-4" x1="2204.99" y1="132.04" x2="2259.83" y2="186.87"
                        gradientTransform="matrix(-1, 0.04, -0.04, -1, 2379.96, 673.93)" xlink:href="#n_86"/>
        <linearGradient id="n_86-5" x1="1562.58" y1="-636.03" x2="1617.41" y2="-581.19"
                        gradientTransform="translate(1426.45 1632.73) rotate(-120.16)" xlink:href="#n_86"/>
        <linearGradient id="n_86-6" x1="625.92" y1="-423.27" x2="680.75" y2="-368.44"
                        gradientTransform="matrix(0.49, -0.87, 0.87, 0.49, 134.22, 1275.09)" xlink:href="#n_86"/>
    </defs>
    <path d="M301.88,560.26a23.51,23.51,0,0,1-5.54,6.74,22.3,22.3,0,0,1-7.51,4.06,29.21,29.21,0,0,1-8.89,1.34,26.09,26.09,0,0,1-10.18-1.91,25.37,25.37,0,0,1-8.17-5.55,19.51,19.51,0,0,1-4-5.5,23.57,23.57,0,0,1-2-6.26A48.26,48.26,0,0,1,255,546q-.11-3.82-.1-8.22t.1-8.22a48.26,48.26,0,0,1,.67-7.17,23.75,23.75,0,0,1,2-6.27,19.61,19.61,0,0,1,4-5.49,25.37,25.37,0,0,1,8.17-5.55,26.09,26.09,0,0,1,10.18-1.91,28.77,28.77,0,0,1,8.94,1.34,22.28,22.28,0,0,1,7.46,4.06,23.38,23.38,0,0,1,5.54,6.74,28.11,28.11,0,0,1,3.11,9.37H291.51a15,15,0,0,0-3.73-6.88Q285.11,515,280,515a12,12,0,0,0-4.93,1,10.29,10.29,0,0,0-3.58,2.58,11,11,0,0,0-1.63,2.34,12.33,12.33,0,0,0-1,3.4,41,41,0,0,0-.52,5.35q-.15,3.26-.15,8.13t.15,8.13a41,41,0,0,0,.52,5.35,12.25,12.25,0,0,0,1,3.39,11.07,11.07,0,0,0,1.63,2.35,10.29,10.29,0,0,0,3.58,2.58,12,12,0,0,0,4.93.95q5.07,0,7.74-2.77a15,15,0,0,0,3.73-6.88H305A28.11,28.11,0,0,1,301.88,560.26Z"
          transform="translate(-75.34 -463.79)"/>
    <path d="M354.42,558.2a18,18,0,0,1-4.49,8.08,19.65,19.65,0,0,1-6.12,4.3,21.77,21.77,0,0,1-9.37,1.82,21.39,21.39,0,0,1-9.32-1.82,19.75,19.75,0,0,1-6.07-4.3,18,18,0,0,1-4.5-8.08,47.39,47.39,0,0,1-1.15-11.33,46.83,46.83,0,0,1,1.15-11.28,18,18,0,0,1,4.5-8,19.75,19.75,0,0,1,6.07-4.3,21.39,21.39,0,0,1,9.32-1.82,21.77,21.77,0,0,1,9.37,1.82,19.65,19.65,0,0,1,6.12,4.3,18,18,0,0,1,4.49,8,46.33,46.33,0,0,1,1.15,11.28A46.88,46.88,0,0,1,354.42,558.2Zm-11.76-18.36a8.69,8.69,0,0,0-2.39-5,7.87,7.87,0,0,0-5.83-2.2,7.76,7.76,0,0,0-5.74,2.2,8.76,8.76,0,0,0-2.39,5,46.51,46.51,0,0,0-.48,7,47.39,47.39,0,0,0,.48,7.08A8.81,8.81,0,0,0,328.7,559a7.76,7.76,0,0,0,5.74,2.2,7.87,7.87,0,0,0,5.83-2.2,8.75,8.75,0,0,0,2.39-5.06,47.39,47.39,0,0,0,.48-7.08A46.51,46.51,0,0,0,342.66,539.84Z"
          transform="translate(-75.34 -463.79)"/>
    <path d="M425.36,571.83V541.71a11.37,11.37,0,0,0-.71-4.3,7.3,7.3,0,0,0-4.59-4.31,9.31,9.31,0,0,0-5.84,0,7.9,7.9,0,0,0-2.67,1.49,7.34,7.34,0,0,0-2,2.72,10.08,10.08,0,0,0-.77,4.11v30.41H396.39V541.71a11.37,11.37,0,0,0-.71-4.3,7.3,7.3,0,0,0-4.59-4.31,9.27,9.27,0,0,0-5.83,0,7.48,7.48,0,0,0-2.68,1.53,7.94,7.94,0,0,0-2,2.78,10.57,10.57,0,0,0-.77,4.3v30.12H367.42V522h12.15v4.59A17.67,17.67,0,0,1,392,521.44a17.63,17.63,0,0,1,7.5,1.53,14.69,14.69,0,0,1,5.69,4.78,19.78,19.78,0,0,1,6.69-4.83,21.12,21.12,0,0,1,8.22-1.48,20.34,20.34,0,0,1,6.94,1.15,14.05,14.05,0,0,1,5.3,3.25,17.19,17.19,0,0,1,4.26,6.55,23.47,23.47,0,0,1,1.19,7.6v31.84Z"
          transform="translate(-75.34 -463.79)"/>
    <path d="M492.77,552.61a42.27,42.27,0,0,1-.58,5.73,23.31,23.31,0,0,1-1.52,5.26,13.55,13.55,0,0,1-2.87,4.31,14.71,14.71,0,0,1-5.31,3.3,19.55,19.55,0,0,1-6.84,1.19,18.69,18.69,0,0,1-6.69-1.1,13.88,13.88,0,0,1-5.35-3.87v22.66H451.18V522h12v4.69a15.49,15.49,0,0,1,5.5-4.07,18.4,18.4,0,0,1,6.93-1.19,19.55,19.55,0,0,1,6.84,1.19,14.71,14.71,0,0,1,5.31,3.3,15.09,15.09,0,0,1,2.87,4.35,22.74,22.74,0,0,1,1.52,5.21,42.34,42.34,0,0,1,.58,5.69c.06,2,.09,3.84.09,5.69S492.83,550.63,492.77,552.61Zm-12.62-11.38a15,15,0,0,0-1.15-4.49,6.86,6.86,0,0,0-2.53-3,9.53,9.53,0,0,0-8.89,0,6.88,6.88,0,0,0-2.54,3,15.27,15.27,0,0,0-1.15,4.49,51.64,51.64,0,0,0-.28,5.64,53,53,0,0,0,.28,5.69A15.38,15.38,0,0,0,465,557.1a6.88,6.88,0,0,0,2.54,3,9.53,9.53,0,0,0,8.89,0,6.86,6.86,0,0,0,2.53-3,15.08,15.08,0,0,0,1.15-4.54,53,53,0,0,0,.28-5.69A51.64,51.64,0,0,0,480.15,541.23Z"
          transform="translate(-75.34 -463.79)"/>
    <path d="M526.23,571.83h-9.75L498.12,522h13.1l10.13,30.79,10-30.79h13.1Z" transform="translate(-75.34 -463.79)"/>
    <path d="M560.65,550.79a11.44,11.44,0,0,0,2.82,8q2.82,3.11,8.08,3.1a15.31,15.31,0,0,0,6.5-1.14,18,18,0,0,0,4.78-3.54l7.56,7.36a35.84,35.84,0,0,1-3.83,3.35,21.69,21.69,0,0,1-4.16,2.43,22.82,22.82,0,0,1-4.92,1.53,33.23,33.23,0,0,1-14.58-.62,17.8,17.8,0,0,1-7.36-4.06,20.76,20.76,0,0,1-5.17-7.84A39.43,39.43,0,0,1,550,536a22.61,22.61,0,0,1,4.45-8,18.74,18.74,0,0,1,6.83-4.93,22.7,22.7,0,0,1,8.85-1.67,22.38,22.38,0,0,1,9.22,1.82,19.54,19.54,0,0,1,6.84,5,21.33,21.33,0,0,1,4.21,7.5,30.41,30.41,0,0,1,1.43,9.52v5.54Zm18.6-11.33a12.55,12.55,0,0,0-.82-2.53,9.55,9.55,0,0,0-3.1-3.68,9.91,9.91,0,0,0-10.42,0,9.49,9.49,0,0,0-3.11,3.68,12.48,12.48,0,0,0-.81,2.53,20.18,20.18,0,0,0-.34,2.82h18.93A20.3,20.3,0,0,0,579.25,539.46Z"
          transform="translate(-75.34 -463.79)"/>
    <path d="M630.35,535.59a12.23,12.23,0,0,0-2.87-2.2,7.9,7.9,0,0,0-3.73-.76,8.34,8.34,0,0,0-2.87.52,7.1,7.1,0,0,0-2.58,1.68,8.85,8.85,0,0,0-1.86,2.86,10.64,10.64,0,0,0-.72,4.11v30H603.29V522h12.14v4.78A14.75,14.75,0,0,1,620.6,523a17.05,17.05,0,0,1,7.36-1.58,18.06,18.06,0,0,1,6.41,1,15.41,15.41,0,0,1,5.35,3.63Z"
          transform="translate(-75.34 -463.79)"/>
    <path d="M681.69,563.32a14.17,14.17,0,0,1-4.49,5.06,20.68,20.68,0,0,1-6.74,3,32.82,32.82,0,0,1-8.27,1c-2,0-3.89-.08-5.74-.24a28.74,28.74,0,0,1-5.45-1,24.39,24.39,0,0,1-5.16-2.15,22.56,22.56,0,0,1-4.88-3.78l8.13-8.13a13.6,13.6,0,0,0,6.74,3.87,30.29,30.29,0,0,0,6.55.82,18,18,0,0,0,3.2-.29,10.26,10.26,0,0,0,2.82-.91,5.82,5.82,0,0,0,2-1.58,3.68,3.68,0,0,0,.76-2.39,4.3,4.3,0,0,0-1.14-3.1,6.52,6.52,0,0,0-4.11-1.48l-7.84-.77c-4.53-.44-8.08-1.74-10.67-3.87s-3.87-5.5-3.87-10.09a14.26,14.26,0,0,1,1.58-6.79,15.08,15.08,0,0,1,4.21-5,18.91,18.91,0,0,1,6.12-3.06,25.19,25.19,0,0,1,7.31-1,42.56,42.56,0,0,1,10.61,1.24,19.54,19.54,0,0,1,8.42,4.59L674.14,535a12.06,12.06,0,0,0-5.26-2.63,27.5,27.5,0,0,0-6.31-.72q-3.74,0-5.4,1.43a4.31,4.31,0,0,0-1.68,3.35,5.73,5.73,0,0,0,.19,1.39,2.93,2.93,0,0,0,.77,1.29,5.7,5.7,0,0,0,1.58,1,7,7,0,0,0,2.63.57l7.84.77q7.46.76,11.13,4.54t3.69,10.09A15.11,15.11,0,0,1,681.69,563.32Z"
          transform="translate(-75.34 -463.79)"/>
    <path d="M703.49,550.79a11.44,11.44,0,0,0,2.82,8q2.82,3.11,8.08,3.1a15.31,15.31,0,0,0,6.5-1.14,18,18,0,0,0,4.78-3.54l7.55,7.36a35.78,35.78,0,0,1-3.82,3.35,22,22,0,0,1-4.16,2.43,22.82,22.82,0,0,1-4.92,1.53,33.23,33.23,0,0,1-14.58-.62,17.83,17.83,0,0,1-7.37-4.06,20.86,20.86,0,0,1-5.16-7.84,34,34,0,0,1-2-12.48A34.33,34.33,0,0,1,692.83,536a22.75,22.75,0,0,1,4.44-8,18.86,18.86,0,0,1,6.84-4.93,22.66,22.66,0,0,1,8.85-1.67,22.38,22.38,0,0,1,9.22,1.82,19.54,19.54,0,0,1,6.84,5,21.15,21.15,0,0,1,4.2,7.5,30.12,30.12,0,0,1,1.44,9.52v5.54Zm18.6-11.33a12.55,12.55,0,0,0-.82-2.53,9.55,9.55,0,0,0-3.1-3.68,9.93,9.93,0,0,0-10.43,0,9.55,9.55,0,0,0-3.1,3.68,13.22,13.22,0,0,0-.82,2.53,20.3,20.3,0,0,0-.33,2.82h18.93A22,22,0,0,0,722.09,539.46Z"
          transform="translate(-75.34 -463.79)"/>
    <path class="cls-1"
          d="M108.86,481.92a51.81,51.81,0,0,1,12.79,2.3,53.44,53.44,0,0,1,14.68,7.34c7.71,5.32,21.9,13.57,46.13,26.42l-.21-28.3c-.92-2.64-6.33-17.28-21.39-23.28a31,31,0,0,0-16.35-2.31,30.26,30.26,0,0,0-10.07,3.57C128.23,470.89,119.52,475.59,108.86,481.92Z"
          transform="translate(-75.34 -463.79)"/>
    <path class="cls-2"
          d="M182.2,478.31a52.11,52.11,0,0,1,4.42,12.22,52.76,52.76,0,0,1,1,16.38c-.72,9.33-.73,25.74.31,53.16l24.38-14.4c1.82-2.12,11.76-14.15,9.39-30.18a31,31,0,0,0-6.22-15.31,30.39,30.39,0,0,0-8.14-6.91C201.46,489.52,193,484.35,182.2,478.31Z"
          transform="translate(-75.34 -463.79)"/>
    <path class="cls-3"
          d="M221.1,537.8A51.73,51.73,0,0,1,213,548a53.07,53.07,0,0,1-13.43,9.43c-8.34,4.26-22.35,12.82-45.18,28l25,13.28c2.76.44,18.2,2.63,30.64-7.76a31,31,0,0,0,9.81-13.29,30.26,30.26,0,0,0,1.64-10.55C221.6,560.08,221.6,550.18,221.1,537.8Z"
          transform="translate(-75.34 -463.79)"/>
    <path class="cls-4"
          d="M188.88,601.91A51.82,51.82,0,0,1,176,600.06a53.39,53.39,0,0,1-14.93-6.81c-7.89-5-22.36-12.78-47-24.77q.61,14.14,1.22,28.29c1,2.6,6.94,17,22.2,22.5A31.06,31.06,0,0,0,153.89,621a30.32,30.32,0,0,0,9.93-3.92C169.92,613.62,178.45,608.61,188.88,601.91Z"
          transform="translate(-75.34 -463.79)"/>
    <path class="cls-5"
          d="M115.93,607.64a51.77,51.77,0,0,1-4.43-12.22,52.76,52.76,0,0,1-1-16.38c.72-9.34.72-25.75-.33-53.16l-24.37,14.4C84,542.41,74,554.44,76.39,570.47a30.89,30.89,0,0,0,6.22,15.3,30.39,30.39,0,0,0,8.14,6.91C96.66,596.43,105.11,601.6,115.93,607.64Z"
          transform="translate(-75.34 -463.79)"/>
    <path class="cls-6"
          d="M75.56,546.63a51.92,51.92,0,0,1,8.23-10,53.1,53.1,0,0,1,13.55-9.26c8.39-4.16,22.5-12.55,45.52-27.47L118,486.27c-2.76-.47-18.18-2.86-30.74,7.37a31.07,31.07,0,0,0-10,13.18,30.44,30.44,0,0,0-1.78,10.53C75.34,524.35,75.21,534.24,75.56,546.63Z"
          transform="translate(-75.34 -463.79)"/>
    <rect class="cls-7" x="194.82" y="507.93" width="1.89" height="48.08"
          transform="translate(-84.02 -460.52) rotate(-0.94)"/>
    <circle class="cls-7" cx="119.83" cy="40.6" r="4.09"/>
    <rect class="cls-7" x="175.34" y="475.1" width="1.89" height="37.17"
          transform="matrix(0.5, -0.86, 0.86, 0.5, -414.5, -65.6)"/>
    <circle class="cls-7" cx="82.34" cy="18.4" r="4.09"/>
    <rect class="cls-7" x="157.22" y="577.52" width="48.08" height="1.89"
          transform="translate(-349.97 -284.88) rotate(-31.37)"/>
    <circle class="cls-7" cx="129.41" cy="100.19" r="4.09"/>
    <rect class="cls-7" x="203.47" y="523.69" width="1.89" height="37.17"
          transform="matrix(1, 0, 0, 1, -78.05, -462.77)"/>
    <circle class="cls-7" cx="129.55" cy="56.62" r="4.09"/>
    <rect class="cls-7" x="134.52" y="565.92" width="1.89" height="48.08"
          transform="translate(-524.29 -31.51) rotate(-61.97)"/>
    <circle class="cls-7" cx="84.54" cy="139.02" r="4.09"/>
    <rect class="cls-7" x="159.82" y="590.53" width="37.17" height="1.89"
          transform="translate(-353.66 -288.34) rotate(-30.89)"/>
    <circle class="cls-7" cx="122.12" cy="116.96" r="4.09"/>
    <rect class="cls-7" x="101.81" y="527.16" width="1.89" height="48.74"
          transform="translate(-81.19 -462.67) rotate(-0.61)"/>
    <ellipse class="cls-7" cx="27.85" cy="115.71" rx="4.09" ry="4.15"/>
    <polygon class="cls-7" points="63.17 135.41 62.22 137.06 30.18 117.94 31.14 116.3 63.17 135.41"/>
    <ellipse class="cls-7" cx="65.22" cy="138.42" rx="4.09" ry="4.15"/>
    <rect class="cls-7" x="91.16" y="506.32" width="48.74" height="1.89"
          transform="translate(-332.19 -319.85) rotate(-32.88)"/>
    <ellipse class="cls-7" cx="92.11" cy="522.56" rx="4.15" ry="4.09"
             transform="translate(-340.09 -333.92) rotate(-32.27)"/>
    <polygon class="cls-7" points="18.98 99.15 17.07 99.22 16.13 61.94 18.04 61.87 18.98 99.15"/>
    <ellipse class="cls-7" cx="92.86" cy="566.29" rx="4.15" ry="4.09"
             transform="translate(-363.32 -326.77) rotate(-32.27)"/>
    <rect class="cls-7" x="162.39" y="471.81" width="1.89" height="48.74"
          transform="translate(-422.62 -77.83) rotate(-59.6)"/>
    <ellipse class="cls-7" cx="139.14" cy="482.14" rx="4.09" ry="4.15"
             transform="translate(-421.11 -110.79) rotate(-58.99)"/>
    <polygon class="cls-7" points="28.72 38.47 27.8 36.8 60.68 19.2 61.6 20.87 28.72 38.47"/>
    <ellipse class="cls-7" cx="100.42" cy="502.47" rx="4.09" ry="4.15"
             transform="translate(-457.31 -134.12) rotate(-58.99)"/>
</svg>